<svg width="200" height="200" viewBox="0 0 100 100" xmlns="[http://www.w3.org/2000/svg](http://www.w3.org/2000/svg)">
  <!-- Background -->
  <rect width="100" height="100" rx="20" fill="#010101"/>
  
  <!-- TikTok Icon Group -->
  <g transform="translate(25, 15)">
    <!-- Cyan Layer -->
    <path d="M48.15 11.41V23.73c-2.3-.61-4.71-.93-7.2-.93H38.5v32.61c0 8.04-6.52 14.56-14.56 14.56S9.38 63.45 9.38 55.41 15.9 40.85 23.94 40.85v12.44c-1.11 0-2.12.89-2.12 2.12 0 1.17.95 2.12 2.12 2.12 1.17 0 2.12-.95 2.12-2.12V0h12.44c0 7.41 5.48 13.54 12.63 14.65l-2.98-3.24z" fill="#25F4EE" style="mix-blend-mode: screen; transform: translate(-1px, -1px);"/>
    
    <!-- Red Layer -->
    <path d="M48.15 11.41V23.73c-2.3-.61-4.71-.93-7.2-.93H38.5v32.61c0 8.04-6.52 14.56-14.56 14.56S9.38 63.45 9.38 55.41 15.9 40.85 23.94 40.85v12.44c-1.11 0-2.12.89-2.12 2.12 0 1.17.95 2.12 2.12 2.12 1.17 0 2.12-.95 2.12-2.12V0h12.44c0 7.41 5.48 13.54 12.63 14.65l-2.98-3.24z" fill="#FE2C55" style="mix-blend-mode: screen; transform: translate(1px, 1px);"/>
    
    <!-- Main White Layer -->
    <path d="M48.15 11.41V23.73c-2.3-.61-4.71-.93-7.2-.93H38.5v32.61c0 8.04-6.52 14.56-14.56 14.56S9.38 63.45 9.38 55.41 15.9 40.85 23.94 40.85v12.44c-1.11 0-2.12.89-2.12 2.12 0 1.17.95 2.12 2.12 2.12 1.17 0 2.12-.95 2.12-2.12V0h12.44c0 7.41 5.48 13.54 12.63 14.65l-2.98-3.24z" fill="#FFFFFF"/>
  </g>
</svg>
